<mxfile host="app.diagrams.net" modified="2024-05-17T00:01:17.431Z" agent="Mozilla/5.0 (Windows NT 10.0; Win64; x64) AppleWebKit/537.36 (KHTML, like Gecko) Chrome/124.0.0.0 Safari/537.36" version="24.4.3" etag="tT4TIvz9NFvG_sXVq-Yw" type="github">
  <diagram name="페이지-1" id="u11Y7TZRZjrzifenyqmT">
    <mxGraphModel>
      <root>
        <mxCell id="0" />
        <mxCell id="1" parent="0" />
      </root>
    </mxGraphModel>
  </diagram>
</mxfile>
